<mxfile host="app.diagrams.net" modified="2024-06-04T07:04:46.783Z" agent="Mozilla/5.0 (Macintosh; Intel Mac OS X 10_15_7) AppleWebKit/537.36 (KHTML, like Gecko) Chrome/125.0.0.0 Safari/537.36 Edg/125.0.0.0" etag="Pi7N5YhZXFVaqYXX4mdQ" version="24.4.13" type="github">
  <diagram id="C5RBs43oDa-KdzZeNtuy" name="Page-1">
    <mxGraphModel dx="1146" dy="616" grid="1" gridSize="10" guides="1" tooltips="1" connect="1" arrows="1" fold="1" page="1" pageScale="1" pageWidth="827" pageHeight="1169" math="0" shadow="0">
      <root>
        <mxCell id="WIyWlLk6GJQsqaUBKTNV-0" />
        <mxCell id="WIyWlLk6GJQsqaUBKTNV-1" parent="WIyWlLk6GJQsqaUBKTNV-0" />
        <mxCell id="fWPX1Hsic2LrMpeWw4wY-0" value="对公转账流程" style="swimlane;childLayout=stackLayout;resizeParent=1;resizeParentMax=0;startSize=20;html=1;" parent="WIyWlLk6GJQsqaUBKTNV-1" vertex="1">
          <mxGeometry x="200" y="50" width="550" height="1100" as="geometry" />
        </mxCell>
        <mxCell id="fWPX1Hsic2LrMpeWw4wY-1" value="易宝" style="swimlane;startSize=20;html=1;" parent="fWPX1Hsic2LrMpeWw4wY-0" vertex="1">
          <mxGeometry y="20" width="190" height="1080" as="geometry" />
        </mxCell>
        <mxCell id="fWPX1Hsic2LrMpeWw4wY-5" value="易宝发送转账成功通知" style="rounded=1;whiteSpace=wrap;html=1;" parent="fWPX1Hsic2LrMpeWw4wY-1" vertex="1">
          <mxGeometry x="35" y="40" width="120" height="60" as="geometry" />
        </mxCell>
        <mxCell id="fWPX1Hsic2LrMpeWw4wY-2" value="支付中台" style="swimlane;startSize=20;html=1;" parent="fWPX1Hsic2LrMpeWw4wY-0" vertex="1">
          <mxGeometry x="190" y="20" width="180" height="1080" as="geometry" />
        </mxCell>
        <mxCell id="fWPX1Hsic2LrMpeWw4wY-9" style="edgeStyle=orthogonalEdgeStyle;rounded=0;orthogonalLoop=1;jettySize=auto;html=1;exitX=0.5;exitY=1;exitDx=0;exitDy=0;entryX=0.5;entryY=0;entryDx=0;entryDy=0;" parent="fWPX1Hsic2LrMpeWw4wY-2" source="fWPX1Hsic2LrMpeWw4wY-6" target="fWPX1Hsic2LrMpeWw4wY-8" edge="1">
          <mxGeometry relative="1" as="geometry" />
        </mxCell>
        <mxCell id="fWPX1Hsic2LrMpeWw4wY-6" value="接受支付成功通知" style="rounded=0;whiteSpace=wrap;html=1;" parent="fWPX1Hsic2LrMpeWw4wY-2" vertex="1">
          <mxGeometry x="30" y="40" width="120" height="60" as="geometry" />
        </mxCell>
        <mxCell id="fWPX1Hsic2LrMpeWw4wY-8" value="判断payWay=&lt;span data-darkreader-inline-bgcolor=&quot;&quot; data-darkreader-inline-color=&quot;&quot; style=&quot;color: rgb(59, 64, 67); font-family: -apple-system, &amp;quot;system-ui&amp;quot;, &amp;quot;Segoe UI&amp;quot;, Roboto, Oxygen, Ubuntu, &amp;quot;Fira Sans&amp;quot;, &amp;quot;Droid Sans&amp;quot;, &amp;quot;Helvetica Neue&amp;quot;, sans-serif; font-size: 14px; text-align: left; background-color: rgb(220, 218, 215); --darkreader-inline-color: #454a4d; --darkreader-inline-bgcolor: #c2beb9;&quot;&gt;&amp;nbsp;BANKTRANSFERPAY&lt;/span&gt;" style="rhombus;whiteSpace=wrap;html=1;" parent="fWPX1Hsic2LrMpeWw4wY-2" vertex="1">
          <mxGeometry x="50" y="130" width="80" height="80" as="geometry" />
        </mxCell>
        <mxCell id="DWeeP0KhTFe1CYgLxBLb-2" value="创建平台订单" style="rounded=0;whiteSpace=wrap;html=1;" vertex="1" parent="fWPX1Hsic2LrMpeWw4wY-2">
          <mxGeometry x="30" y="230" width="120" height="60" as="geometry" />
        </mxCell>
        <mxCell id="DWeeP0KhTFe1CYgLxBLb-15" style="edgeStyle=orthogonalEdgeStyle;rounded=0;orthogonalLoop=1;jettySize=auto;html=1;exitX=0.5;exitY=1;exitDx=0;exitDy=0;" edge="1" parent="fWPX1Hsic2LrMpeWw4wY-2" source="DWeeP0KhTFe1CYgLxBLb-10" target="DWeeP0KhTFe1CYgLxBLb-13">
          <mxGeometry relative="1" as="geometry" />
        </mxCell>
        <mxCell id="DWeeP0KhTFe1CYgLxBLb-10" value="支付成功回调MQ" style="rounded=0;whiteSpace=wrap;html=1;" vertex="1" parent="fWPX1Hsic2LrMpeWw4wY-2">
          <mxGeometry x="30" y="630" width="120" height="60" as="geometry" />
        </mxCell>
        <mxCell id="DWeeP0KhTFe1CYgLxBLb-13" value="回调结算系统" style="rounded=0;whiteSpace=wrap;html=1;" vertex="1" parent="fWPX1Hsic2LrMpeWw4wY-2">
          <mxGeometry x="30" y="730" width="120" height="60" as="geometry" />
        </mxCell>
        <mxCell id="DWeeP0KhTFe1CYgLxBLb-30" value="创建支付订单" style="rounded=0;whiteSpace=wrap;html=1;" vertex="1" parent="fWPX1Hsic2LrMpeWw4wY-2">
          <mxGeometry x="30" y="410" width="120" height="60" as="geometry" />
        </mxCell>
        <mxCell id="fWPX1Hsic2LrMpeWw4wY-3" value="结算系统" style="swimlane;startSize=20;html=1;" parent="fWPX1Hsic2LrMpeWw4wY-0" vertex="1">
          <mxGeometry x="370" y="20" width="180" height="1080" as="geometry" />
        </mxCell>
        <mxCell id="fWPX1Hsic2LrMpeWw4wY-13" value="创建平台订单" style="rounded=0;whiteSpace=wrap;html=1;" parent="fWPX1Hsic2LrMpeWw4wY-3" vertex="1">
          <mxGeometry x="30" y="230" width="120" height="60" as="geometry" />
        </mxCell>
        <mxCell id="DWeeP0KhTFe1CYgLxBLb-0" style="edgeStyle=orthogonalEdgeStyle;rounded=0;orthogonalLoop=1;jettySize=auto;html=1;exitX=0.5;exitY=1;exitDx=0;exitDy=0;entryX=0.5;entryY=0;entryDx=0;entryDy=0;" edge="1" parent="fWPX1Hsic2LrMpeWw4wY-3" source="fWPX1Hsic2LrMpeWw4wY-32" target="fWPX1Hsic2LrMpeWw4wY-13">
          <mxGeometry relative="1" as="geometry" />
        </mxCell>
        <mxCell id="fWPX1Hsic2LrMpeWw4wY-32" value="创建充值订单" style="rounded=0;whiteSpace=wrap;html=1;" parent="fWPX1Hsic2LrMpeWw4wY-3" vertex="1">
          <mxGeometry x="30" y="130" width="120" height="60" as="geometry" />
        </mxCell>
        <mxCell id="DWeeP0KhTFe1CYgLxBLb-33" style="edgeStyle=orthogonalEdgeStyle;rounded=0;orthogonalLoop=1;jettySize=auto;html=1;exitX=0.5;exitY=1;exitDx=0;exitDy=0;" edge="1" parent="fWPX1Hsic2LrMpeWw4wY-3" source="DWeeP0KhTFe1CYgLxBLb-4" target="DWeeP0KhTFe1CYgLxBLb-7">
          <mxGeometry relative="1" as="geometry" />
        </mxCell>
        <mxCell id="DWeeP0KhTFe1CYgLxBLb-4" value="更新充值订单" style="rounded=0;whiteSpace=wrap;html=1;" vertex="1" parent="fWPX1Hsic2LrMpeWw4wY-3">
          <mxGeometry x="30" y="320" width="120" height="60" as="geometry" />
        </mxCell>
        <mxCell id="DWeeP0KhTFe1CYgLxBLb-40" style="edgeStyle=orthogonalEdgeStyle;rounded=0;orthogonalLoop=1;jettySize=auto;html=1;exitX=0.5;exitY=1;exitDx=0;exitDy=0;" edge="1" parent="fWPX1Hsic2LrMpeWw4wY-3" source="DWeeP0KhTFe1CYgLxBLb-16" target="DWeeP0KhTFe1CYgLxBLb-38">
          <mxGeometry relative="1" as="geometry" />
        </mxCell>
        <mxCell id="DWeeP0KhTFe1CYgLxBLb-16" value="充值回调" style="rounded=0;whiteSpace=wrap;html=1;" vertex="1" parent="fWPX1Hsic2LrMpeWw4wY-3">
          <mxGeometry x="30" y="730" width="120" height="60" as="geometry" />
        </mxCell>
        <mxCell id="DWeeP0KhTFe1CYgLxBLb-20" style="edgeStyle=orthogonalEdgeStyle;rounded=0;orthogonalLoop=1;jettySize=auto;html=1;exitX=0.5;exitY=1;exitDx=0;exitDy=0;entryX=0.5;entryY=0;entryDx=0;entryDy=0;" edge="1" parent="fWPX1Hsic2LrMpeWw4wY-3" source="DWeeP0KhTFe1CYgLxBLb-18" target="fWPX1Hsic2LrMpeWw4wY-32">
          <mxGeometry relative="1" as="geometry" />
        </mxCell>
        <mxCell id="DWeeP0KhTFe1CYgLxBLb-18" value="结算MQ" style="rounded=0;whiteSpace=wrap;html=1;" vertex="1" parent="fWPX1Hsic2LrMpeWw4wY-3">
          <mxGeometry x="30" y="40" width="120" height="60" as="geometry" />
        </mxCell>
        <mxCell id="DWeeP0KhTFe1CYgLxBLb-7" value="创建支付订单" style="rounded=0;whiteSpace=wrap;html=1;" vertex="1" parent="fWPX1Hsic2LrMpeWw4wY-3">
          <mxGeometry x="30" y="410" width="120" height="60" as="geometry" />
        </mxCell>
        <mxCell id="DWeeP0KhTFe1CYgLxBLb-35" value="充值订单创建成功" style="rounded=0;whiteSpace=wrap;html=1;" vertex="1" parent="fWPX1Hsic2LrMpeWw4wY-3">
          <mxGeometry x="30" y="510" width="120" height="60" as="geometry" />
        </mxCell>
        <mxCell id="DWeeP0KhTFe1CYgLxBLb-42" style="edgeStyle=orthogonalEdgeStyle;rounded=0;orthogonalLoop=1;jettySize=auto;html=1;exitX=0.5;exitY=1;exitDx=0;exitDy=0;" edge="1" parent="fWPX1Hsic2LrMpeWw4wY-3" source="DWeeP0KhTFe1CYgLxBLb-38" target="DWeeP0KhTFe1CYgLxBLb-41">
          <mxGeometry relative="1" as="geometry" />
        </mxCell>
        <mxCell id="DWeeP0KhTFe1CYgLxBLb-38" value="更新充值订单状态" style="rounded=0;whiteSpace=wrap;html=1;" vertex="1" parent="fWPX1Hsic2LrMpeWw4wY-3">
          <mxGeometry x="30" y="830" width="120" height="60" as="geometry" />
        </mxCell>
        <mxCell id="DWeeP0KhTFe1CYgLxBLb-41" value="入账" style="rounded=0;whiteSpace=wrap;html=1;" vertex="1" parent="fWPX1Hsic2LrMpeWw4wY-3">
          <mxGeometry x="30" y="930" width="120" height="60" as="geometry" />
        </mxCell>
        <mxCell id="fWPX1Hsic2LrMpeWw4wY-7" style="edgeStyle=orthogonalEdgeStyle;rounded=0;orthogonalLoop=1;jettySize=auto;html=1;exitX=1;exitY=0.5;exitDx=0;exitDy=0;entryX=0;entryY=0.5;entryDx=0;entryDy=0;" parent="fWPX1Hsic2LrMpeWw4wY-0" source="fWPX1Hsic2LrMpeWw4wY-5" target="fWPX1Hsic2LrMpeWw4wY-6" edge="1">
          <mxGeometry relative="1" as="geometry" />
        </mxCell>
        <mxCell id="DWeeP0KhTFe1CYgLxBLb-3" style="edgeStyle=orthogonalEdgeStyle;rounded=0;orthogonalLoop=1;jettySize=auto;html=1;exitX=0;exitY=0.5;exitDx=0;exitDy=0;entryX=1;entryY=0.5;entryDx=0;entryDy=0;" edge="1" parent="fWPX1Hsic2LrMpeWw4wY-0" source="fWPX1Hsic2LrMpeWw4wY-13" target="DWeeP0KhTFe1CYgLxBLb-2">
          <mxGeometry relative="1" as="geometry" />
        </mxCell>
        <mxCell id="DWeeP0KhTFe1CYgLxBLb-5" style="edgeStyle=orthogonalEdgeStyle;rounded=0;orthogonalLoop=1;jettySize=auto;html=1;exitX=0.5;exitY=1;exitDx=0;exitDy=0;entryX=0;entryY=0.5;entryDx=0;entryDy=0;" edge="1" parent="fWPX1Hsic2LrMpeWw4wY-0" source="DWeeP0KhTFe1CYgLxBLb-2" target="DWeeP0KhTFe1CYgLxBLb-4">
          <mxGeometry relative="1" as="geometry" />
        </mxCell>
        <mxCell id="DWeeP0KhTFe1CYgLxBLb-17" style="edgeStyle=orthogonalEdgeStyle;rounded=0;orthogonalLoop=1;jettySize=auto;html=1;exitX=1;exitY=0.5;exitDx=0;exitDy=0;entryX=0;entryY=0.5;entryDx=0;entryDy=0;" edge="1" parent="fWPX1Hsic2LrMpeWw4wY-0" source="DWeeP0KhTFe1CYgLxBLb-13" target="DWeeP0KhTFe1CYgLxBLb-16">
          <mxGeometry relative="1" as="geometry" />
        </mxCell>
        <mxCell id="DWeeP0KhTFe1CYgLxBLb-19" style="edgeStyle=orthogonalEdgeStyle;rounded=0;orthogonalLoop=1;jettySize=auto;html=1;exitX=1;exitY=0.5;exitDx=0;exitDy=0;entryX=0;entryY=0.5;entryDx=0;entryDy=0;" edge="1" parent="fWPX1Hsic2LrMpeWw4wY-0" source="fWPX1Hsic2LrMpeWw4wY-8" target="DWeeP0KhTFe1CYgLxBLb-18">
          <mxGeometry relative="1" as="geometry" />
        </mxCell>
        <mxCell id="DWeeP0KhTFe1CYgLxBLb-31" style="edgeStyle=orthogonalEdgeStyle;rounded=0;orthogonalLoop=1;jettySize=auto;html=1;exitX=0;exitY=0.5;exitDx=0;exitDy=0;entryX=1;entryY=0.5;entryDx=0;entryDy=0;" edge="1" parent="fWPX1Hsic2LrMpeWw4wY-0" source="DWeeP0KhTFe1CYgLxBLb-7" target="DWeeP0KhTFe1CYgLxBLb-30">
          <mxGeometry relative="1" as="geometry" />
        </mxCell>
        <mxCell id="DWeeP0KhTFe1CYgLxBLb-36" style="edgeStyle=orthogonalEdgeStyle;rounded=0;orthogonalLoop=1;jettySize=auto;html=1;exitX=0.5;exitY=1;exitDx=0;exitDy=0;entryX=0;entryY=0.5;entryDx=0;entryDy=0;" edge="1" parent="fWPX1Hsic2LrMpeWw4wY-0" source="DWeeP0KhTFe1CYgLxBLb-30" target="DWeeP0KhTFe1CYgLxBLb-35">
          <mxGeometry relative="1" as="geometry" />
        </mxCell>
        <mxCell id="DWeeP0KhTFe1CYgLxBLb-37" style="edgeStyle=orthogonalEdgeStyle;rounded=0;orthogonalLoop=1;jettySize=auto;html=1;exitX=0.5;exitY=1;exitDx=0;exitDy=0;entryX=1;entryY=0.5;entryDx=0;entryDy=0;" edge="1" parent="fWPX1Hsic2LrMpeWw4wY-0" source="DWeeP0KhTFe1CYgLxBLb-35" target="DWeeP0KhTFe1CYgLxBLb-10">
          <mxGeometry relative="1" as="geometry" />
        </mxCell>
      </root>
    </mxGraphModel>
  </diagram>
</mxfile>
